<?xml version="1.0" encoding="UTF-8"?>
<svg xmlns="http://www.w3.org/2000/svg" xmlns:xlink="http://www.w3.org/1999/xlink" width="48px" height="48px" viewBox="0 0 48 48" version="1.1">
<g id="surface1">
<path style=" stroke:none;fill-rule:nonzero;fill:rgb(0%,0%,0%);fill-opacity:1;" d="M 40 40 C 39.605469 40.003906 39.222656 39.886719 38.898438 39.660156 L 25.101562 30.539062 C 24.433594 30.101562 23.566406 30.101562 22.898438 30.539062 L 9.101562 39.660156 C 8.34375 40.144531 7.359375 40.070312 6.6875 39.472656 C 6.015625 38.878906 5.824219 37.90625 6.21875 37.101562 L 22.21875 5.101562 C 22.5625 4.433594 23.25 4.011719 24 4.011719 C 24.75 4.011719 25.4375 4.433594 25.78125 5.101562 L 41.78125 37.101562 C 42.191406 37.910156 42 38.898438 41.320312 39.5 C 40.957031 39.820312 40.484375 40 40 40 Z M 40 40 "/>
</g>
</svg>
