<?xml version="1.0" encoding="UTF-8"?>
<svg xmlns="http://www.w3.org/2000/svg" xmlns:xlink="http://www.w3.org/1999/xlink" width="48px" height="48px" viewBox="0 0 48 48" version="1.1">
<g id="surface1">
<path style=" stroke:none;fill-rule:evenodd;fill:rgb(0%,0%,0%);fill-opacity:1;" d="M 19.152344 38.398438 C 19.152344 40.800781 21.320312 43.199219 24 43.199219 C 26.679688 43.199219 28.847656 40.800781 28.847656 38.398438 C 28.847656 31.199219 19.152344 31.199219 19.152344 38.398438 M 13.714844 28.21875 L 17.144531 31.613281 C 20.921875 27.867188 27.078125 27.867188 30.855469 31.613281 L 34.285156 28.21875 C 28.605469 22.59375 19.394531 22.59375 13.714844 28.21875 M 0 14.640625 L 3.429688 18.035156 C 14.773438 6.808594 33.226562 6.808594 44.570312 18.035156 L 48 14.640625 C 34.746094 1.519531 13.253906 1.519531 0 14.640625 M 41.144531 21.429688 L 37.714844 24.824219 C 30.152344 17.339844 17.847656 17.339844 10.285156 24.824219 L 6.855469 21.429688 C 16.324219 12.058594 31.675781 12.058594 41.144531 21.429688 "/>
</g>
</svg>
