<svg fill="#edc80c" height="200px" width="200px" version="1.1" id="Layer_1" xmlns="http://www.w3.org/2000/svg" xmlns:xlink="http://www.w3.org/1999/xlink" viewBox="0 0 512.007 512.007" xml:space="preserve"><g id="SVGRepo_bgCarrier" stroke-width="0"></g><g id="SVGRepo_tracerCarrier" stroke-linecap="round" stroke-linejoin="round"></g><g id="SVGRepo_iconCarrier"> <g> <g> <g> <path d="M426.669,170.667c47.131,0,85.333-38.202,85.333-85.333S473.801,0,426.669,0s-85.333,38.202-85.333,85.333 S379.538,170.667,426.669,170.667z M426.669,42.667c23.567,0,42.667,19.099,42.667,42.667S450.237,128,426.669,128 s-42.667-19.099-42.667-42.667S403.102,42.667,426.669,42.667z"></path> <path d="M256.003,128c0-70.683-57.317-128-128-128s-128,57.317-128,128s57.317,128,128,128S256.003,198.683,256.003,128z M42.669,128c0-47.119,38.214-85.333,85.333-85.333S213.336,80.881,213.336,128s-38.214,85.333-85.333,85.333 S42.669,175.119,42.669,128z"></path> <path d="M503.676,473.757l-100.547-77.344l39.327-107.569c5.267-14.039,6.668-28.49,4.798-42.261l55.249-36.833 c9.803-6.536,12.452-19.781,5.917-29.584s-19.781-12.452-29.584-5.917l-47.976,31.984 c-12.085-16.392-29.949-28.751-51.689-33.529c-41.196-9.029-82.985,12.579-99.425,51.409l-24.71,58.382l-28.692-22.071 c-9.339-7.184-22.733-5.437-29.916,3.902s-5.437,22.733,3.902,29.917l8.726,6.712l-75.496-12.759 c-10.18-1.721-20.131,4.096-23.628,13.81l-41.579,115.52c-12.668,33.95,2.886,72.201,35.889,87.767 c35.601,16.773,78.022,1.009,94.021-34.941l15.605-35.066l145.343,28.739c10.309,2.038,20.566-3.734,24.174-13.603l4.385-11.995 l89.893,69.148c9.339,7.184,22.733,5.437,29.916-3.902S513.015,480.941,503.676,473.757z M319.036,240.746 c8.43-19.911,29.868-30.996,50.987-26.367c26.707,5.871,42.026,34.049,32.423,59.647l-34.773,95.113l-77.685-59.758 L319.036,240.746z M349.579,418.629l-144.141-28.502c-9.771-1.932-19.579,3.155-23.629,12.255l-22.528,50.624 c-6.27,14.09-22.895,20.268-36.846,13.695c-12.928-6.098-19.023-21.088-14.022-34.492l35.623-98.97l110.157,18.617 c5.817,0.983,11.573-0.51,16.095-3.798l82.024,63.096L349.579,418.629z"></path> </g> </g> </g> </g></svg>
